<?xml version="1.0" encoding="UTF-8"?>
<svg width="26px" height="26px" viewBox="0 0 26 26" version="1.1" xmlns="http://www.w3.org/2000/svg" xmlns:xlink="http://www.w3.org/1999/xlink">
    <g stroke="none" stroke-width="1">
        <g transform="translate(-795.000000, -155.000000)">
            <g transform="translate(0.000000, 68.000000)">
                <g transform="translate(795.000000, 87.000000)">
                    <path d="M26,13 C26,20.1796871 20.1799529,26 13.0001712,26 C5.82038956,26 0,20.1796871 0,13 C0,5.82031291 5.82038956,0 13.0001712,0 C20.1799529,0 26,5.82031291 26,13 Z M18.4547364,7 L8.54526362,7 C7.69178736,7 7,7.69001446 7,8.54171781 L7,18.4582822 C7,19.309631 7.69178736,20 8.54526362,20 L18.4547364,20 C19.3082126,20 20,19.309631 20,18.4582822 L20,8.54171781 C20,7.69001446 19.3082126,7 18.4547364,7 Z M16.3439162,9.03103947 C16.3439162,8.80694433 16.5258162,8.62468974 16.7499114,8.62468974 L17.968606,8.62468974 C18.1930557,8.62468974 18.3749557,8.80694433 18.3749557,9.03103947 L18.3749557,10.2497341 C18.3749557,10.4741838 18.1930557,10.6560838 17.968606,10.6560838 L16.7499114,10.6560838 C16.5258162,10.6560838 16.3439162,10.4741838 16.3439162,10.2497341 L16.3439162,9.03103947 Z M13.5150697,11.0209475 C14.8958078,11.0209475 16.0152197,12.1378774 16.0152197,13.5150697 C16.0152197,14.8926165 14.8958078,16.0091918 13.5150697,16.0091918 C12.1346862,16.0091918 11.0152743,14.8926165 11.0152743,13.5150697 C11.0152743,12.1378774 12.1346862,11.0209475 13.5150697,11.0209475 Z M18.7813054,18.3749557 C18.7813054,18.5990508 18.5994054,18.7813054 18.3749557,18.7813054 L8.62504432,18.7813054 C8.4005946,18.7813054 8.2186946,18.5990508 8.2186946,18.3749557 L8.2186946,12.2811281 L9.84373892,12.2811281 C9.63205411,12.5857131 9.56042877,13.1541063 9.56042877,13.5150697 C9.56042877,15.6904236 11.3347517,17.4604915 13.5150697,17.4604915 C15.6957423,17.4604915 17.4700652,15.6904236 17.4700652,13.5150697 C17.4700652,13.1541063 17.418651,12.5942231 17.1562611,12.2811281 L18.7813054,12.2811281 L18.7813054,18.3749557 Z"></path>
                </g>
            </g>
        </g>
    </g>
</svg>
