<svg xmlns="http://www.w3.org/2000/svg">
    <path d="M14 .56C6.577.56.56 6.577.56 14c0 7.423 6.017 13.44 13.44 13.44 7.423 0 13.44-6.017 13.44-13.44C27.44 6.577 21.423.56 14 .56zm-3.29 19.01H7.988v-8.758h2.722v8.759zM9.332 9.738c-.86 0-1.415-.609-1.415-1.362 0-.769.573-1.36 1.45-1.36.878 0 1.416.591 1.433 1.36 0 .753-.555 1.362-1.468 1.362zm11.318 9.834h-2.722v-4.854c0-1.13-.394-1.897-1.379-1.897-.751 0-1.198.52-1.395 1.019-.073.178-.091.43-.091.68v5.05H12.34v-5.964c0-1.093-.035-2.007-.072-2.794h2.365l.124 1.216h.055c.358-.57 1.236-1.414 2.705-1.414 1.79 0 3.133 1.2 3.133 3.779v5.179z"/>
</svg>
