<svg viewBox="0 0 18 18" xmlns="http://www.w3.org/2000/svg" xmlns:xlink="http://www.w3.org/1999/xlink">
    <title>Tooltip Icon</title>
<g fill-rule="evenodd">
    <path d="M10.8295898,12.2319336 L10.7114258,12.715332 C10.3569318,12.8549812 10.074057,12.9615068 9.86279297,13.0349121 C9.65152889,13.1083174 9.4062514,13.1450195 9.12695312,13.1450195 C8.69726348,13.1450195 8.36336382,13.0402843 8.12524414,12.8308105 C7.88712446,12.6213368 7.76806641,12.3554704 7.76806641,12.0332031 C7.76806641,11.907877 7.77701814,11.7798672 7.79492188,11.6491699 C7.81282561,11.5184727 7.84147116,11.3707691 7.88085938,11.2060547 L8.32128906,9.63769531 C8.36067728,9.48730394 8.39379869,9.34497137 8.4206543,9.21069336 C8.4475099,9.07641534 8.4609375,8.9537766 8.4609375,8.84277344 C8.4609375,8.6422516 8.41975953,8.50260456 8.33740234,8.42382812 C8.25504516,8.34505169 8.09749465,8.30566406 7.86474609,8.30566406 C7.75016219,8.30566406 7.63289448,8.32356753 7.51293945,8.359375 C7.39298443,8.39518247 7.29003949,8.42919906 7.20410156,8.46142578 L7.32226562,7.97802734 C7.61230614,7.85986269 7.88980987,7.7587081 8.15478516,7.67456055 C8.41976044,7.59041299 8.67040897,7.54833984 8.90673828,7.54833984 C9.33284718,7.54833984 9.6613758,7.65128478 9.89233398,7.85717773 C10.1232922,8.06307069 10.2387695,8.33072752 10.2387695,8.66015625 C10.2387695,8.72819044 10.230713,8.84814367 10.2145996,9.02001953 C10.1984862,9.19189539 10.1689455,9.3494459 10.1259766,9.49267578 L9.68554688,11.0556641 C9.6497394,11.1809902 9.61751316,11.3242179 9.58886719,11.4853516 C9.56022121,11.6464852 9.54589844,11.7682288 9.54589844,11.8505859 C9.54589844,12.0582693 9.59244745,12.1997067 9.68554688,12.2749023 C9.7786463,12.350098 9.9397775,12.3876953 10.1689453,12.3876953 C10.2763677,12.3876953 10.3981113,12.3688967 10.5341797,12.3312988 C10.6702481,12.293701 10.7687171,12.2605796 10.8295898,12.2319336 Z M10.9423828,5.67382812 C10.9423828,5.9459649 10.8394379,6.1778148 10.6335449,6.36938477 C10.427652,6.56095473 10.179689,6.65673828 9.88964844,6.65673828 C9.59960792,6.65673828 9.35074974,6.56095473 9.14306641,6.36938477 C8.93538308,6.1778148 8.83154297,5.9459649 8.83154297,5.67382812 C8.83154297,5.40169135 8.93538308,5.16894628 9.14306641,4.97558594 C9.35074974,4.7822256 9.59960792,4.68554688 9.88964844,4.68554688 C10.179689,4.68554688 10.427652,4.7822256 10.6335449,4.97558594 C10.8394379,5.16894628 10.9423828,5.40169135 10.9423828,5.67382812 Z"></path>
</g>
</svg>
