<svg xmlns="http://www.w3.org/2000/svg">
    <path d="M14 .56C6.577.56.56 6.577.56 14c0 7.423 6.017 13.44 13.44 13.44 7.423 0 13.44-6.017 13.44-13.44C27.44 6.577 21.423.56 14 .56zm5.467 11.01c.006.114.007.23.007.341 0 3.5-2.661 7.534-7.53 7.534a7.47 7.47 0 0 1-4.058-1.19c.206.025.417.035.632.035 1.24 0 2.381-.422 3.287-1.133a2.652 2.652 0 0 1-2.473-1.837 2.66 2.66 0 0 0 1.194-.046 2.65 2.65 0 0 1-2.123-2.596v-.032c.357.198.766.318 1.2.332a2.646 2.646 0 0 1-1.178-2.205c0-.484.13-.94.359-1.331a7.526 7.526 0 0 0 5.455 2.767 2.648 2.648 0 0 1 4.51-2.415 5.316 5.316 0 0 0 1.681-.642 2.66 2.66 0 0 1-1.163 1.466 5.318 5.318 0 0 0 1.52-.419c-.354.53-.803.998-1.32 1.37z"/>
</svg>
