<svg id="Layer_1" data-name="Layer 1" xmlns="http://www.w3.org/2000/svg" viewBox="0 0 559.71 559.71"><defs><style>.cls-1{fill:#0f3a45;}.cls-1,.cls-2,.cls-6{stroke:#0f3a45;}.cls-1,.cls-10,.cls-2,.cls-5,.cls-6,.cls-7,.cls-9{stroke-miterlimit:10;stroke-width:4px;}.cls-10,.cls-2,.cls-5{fill:#00b28f;}.cls-3{fill:#5dc1c1;}.cls-4{fill:#335761;}.cls-5{stroke:#00b28f;}.cls-6,.cls-7,.cls-8,.cls-9{fill:none;}.cls-10,.cls-7{stroke:#fff;}.cls-9{stroke:#000;}</style></defs><title>minotaur-color</title><path class="cls-1" d="M279.85,2a259.36,259.36,0,0,1,94.46,16.47C472.74,55.82,558.79,160.42,557.7,279.86c-1.26,138.52-119.42,265.26-277.85,277.85"/><path class="cls-2" d="M279.85,557.71C126.4,557.71,2,433.31,2,279.86S126.4,2,279.85,2"/><polyline class="cls-3" points="279.77 129.88 116.46 54.36 171.33 535 279.77 455.3"/><polyline class="cls-4" points="279.77 455.3 551.53 255.55 279.77 129.88"/><path class="cls-5" d="M432.52,335a67.4,67.4,0,0,0-108.27,42.92A67.4,67.4,0,0,0,432.52,335Z"/><path class="cls-6" d="M236.61,447.58a48.1,48.1,0,0,0,43.24,69.15"/><path class="cls-7" d="M323.09,447.58a48.1,48.1,0,0,1-43.24,69.15"/><path class="cls-7" d="M473.56,323.63c-1.92-11.26-29.92,1-26.09-17.66,8.5-41.45,20.11-52.82,25.55-80.75,10-51.35-51.09-59-64.59-109.16-7.68-28.56,29.94-57.6,28.9-60.86-1.27-4-65,16.49-74.21,58.31"/><line class="cls-8" x1="279.85" y1="557.71" x2="279.85" y2="2.01"/><path class="cls-9" d="M216.85,85.09"/><path class="cls-1" d="M126.2,334.67a66.74,66.74,0,0,1,107.2,42.49,66.74,66.74,0,0,1-107.2-42.49Z"/><path class="cls-6" d="M85,323.63c1.91-11.26,29.92,1,26.08-17.66-8.5-41.45-20.11-52.82-25.54-80.75-10-51.35,51.09-59,64.58-109.16,7.68-28.56-29.94-57.6-28.9-60.86,1.27-4,65,16.49,74.21,58.31"/><path class="cls-10" d="M279.27,54.72a120.3,120.3,0,0,1,51.11,10.45c42.76,19.14,78.73,65.49,78.73,119.4A129.85,129.85,0,0,1,279.27,314.42"/><path class="cls-10" d="M279.27,54.72a120.26,120.26,0,0,0-51.11,10.45c-42.77,19.14-78.74,65.49-78.74,119.4A129.85,129.85,0,0,0,279.27,314.42"/></svg>