<svg xmlns="http://www.w3.org/2000/svg" xmlns:xlink="http://www.w3.org/1999/xlink" width="0" height="0" style="position:absolute">
	
		<symbol id="github" viewBox="0 0 24 24">
			<title>GitHub icon</title><path d="M12 .297c-6.63 0-12 5.373-12 12 0 5.303 3.438 9.8 8.205 11.385.6.113.82-.258.82-.577 0-.285-.01-1.04-.015-2.04-3.338.724-4.042-1.61-4.042-1.61C4.422 18.07 3.633 17.7 3.633 17.7c-1.087-.744.084-.729.084-.729 1.205.084 1.838 1.236 1.838 1.236 1.07 1.835 2.809 1.305 3.495.998.108-.776.417-1.305.76-1.605-2.665-.3-5.466-1.332-5.466-5.93 0-1.31.465-2.38 1.235-3.22-.135-.303-.54-1.523.105-3.176 0 0 1.005-.322 3.3 1.23.96-.267 1.98-.399 3-.405 1.02.006 2.04.138 3 .405 2.28-1.552 3.285-1.23 3.285-1.23.645 1.653.24 2.873.12 3.176.765.84 1.23 1.91 1.23 3.22 0 4.61-2.805 5.625-5.475 5.92.42.36.81 1.096.81 2.22 0 1.606-.015 2.896-.015 3.286 0 .315.21.69.825.57C20.565 22.092 24 17.592 24 12.297c0-6.627-5.373-12-12-12"></path>
		</symbol>
	
		<symbol id="minotaur" viewBox="0 0 559.71 559.71">
			<defs><style>.cls-1{fill:none}.cls-1,.cls-2{stroke:#000;stroke-miterlimit:10;stroke-width:4px}</style></defs><title>minotaur</title><path class="cls-1" d="M396.58 28.13A259.33 259.33 0 0 1 491 44.6C589.48 81.94 675.52 186.54 674.43 306 673.17 444.5 555 571.24 396.58 583.83M396.58 583.83c-153.45 0-277.85-124.4-277.85-277.85S243.13 28.13 396.58 28.13" transform="translate(-116.73 -26.12)"></path><path class="cls-2" d="M549.25 361.14A67.41 67.41 0 0 0 441 404.06a67.4 67.4 0 0 0 108.27-42.92z" transform="translate(-116.73 -26.12)"></path><path class="cls-1" d="M353.34 473.7a48.1 48.1 0 0 0 43.24 69.15M439.82 473.7a48.1 48.1 0 0 1-43.24 69.15M590.29 349.75c-1.92-11.26-29.92 1-26.09-17.66 8.51-41.45 20.11-52.82 25.55-80.75 10-51.35-51.09-59-64.59-109.16-7.67-28.56 30-57.6 28.91-60.86-1.28-4-65 16.49-74.21 58.31" transform="translate(-116.73 -26.12)"></path><path class="cls-1" d="M279.85 557.71V2.01"></path><path class="cls-2" d="M396 80.84a120.28 120.28 0 0 1 51.11 10.45c42.76 19.14 78.74 65.49 78.74 119.4A129.86 129.86 0 0 1 396 340.54M242.94 360.79a66.74 66.74 0 0 1 107.2 42.49 66.74 66.74 0 0 1-107.2-42.49z" transform="translate(-116.73 -26.12)"></path><path class="cls-1" d="M201.71 349.75c1.92-11.26 29.92 1 26.09-17.66-8.51-41.45-20.11-52.82-25.55-80.75-10-51.35 51.09-59 64.59-109.16 7.67-28.56-29.95-57.6-28.91-60.86 1.28-4 65 16.49 74.21 58.31" transform="translate(-116.73 -26.12)"></path><path class="cls-2" d="M396 80.84a120.28 120.28 0 0 0-51.11 10.45c-42.76 19.14-78.74 65.49-78.74 119.4A129.86 129.86 0 0 0 396 340.54" transform="translate(-116.73 -26.12)"></path>
		</symbol>
	
		<symbol id="minotaur-color" viewBox="0 0 559.71 559.71">
			<defs><style>.cls-1{fill:#0f3a45}.cls-1,.cls-2,.cls-6{stroke:#0f3a45}.cls-1,.cls-10,.cls-2,.cls-5,.cls-6,.cls-7,.cls-9{stroke-miterlimit:10;stroke-width:4px}.cls-10,.cls-2,.cls-5{fill:#00b28f}.cls-3{fill:#5dc1c1}.cls-4{fill:#335761}.cls-5{stroke:#00b28f}.cls-6,.cls-7,.cls-8,.cls-9{fill:none}.cls-10,.cls-7{stroke:#fff}.cls-9{stroke:#000}</style></defs><title>minotaur-color</title><path class="cls-1" d="M279.85 2a259.36 259.36 0 0 1 94.46 16.47c98.43 37.35 184.48 141.95 183.39 261.39-1.26 138.52-119.42 265.26-277.85 277.85"></path><path class="cls-2" d="M279.85 557.71C126.4 557.71 2 433.31 2 279.86S126.4 2 279.85 2"></path><path class="cls-3" d="M279.77 129.88L116.46 54.36 171.33 535l108.44-79.7"></path><path class="cls-4" d="M279.77 455.3l271.76-199.75-271.76-125.67"></path><path class="cls-5" d="M432.52 335a67.4 67.4 0 0 0-108.27 42.92A67.4 67.4 0 0 0 432.52 335z"></path><path class="cls-6" d="M236.61 447.58a48.1 48.1 0 0 0 43.24 69.15"></path><path class="cls-7" d="M323.09 447.58a48.1 48.1 0 0 1-43.24 69.15M473.56 323.63c-1.92-11.26-29.92 1-26.09-17.66 8.5-41.45 20.11-52.82 25.55-80.75 10-51.35-51.09-59-64.59-109.16-7.68-28.56 29.94-57.6 28.9-60.86-1.27-4-65 16.49-74.21 58.31"></path><path class="cls-8" d="M279.85 557.71V2.01"></path><path class="cls-1" d="M126.2 334.67a66.74 66.74 0 0 1 107.2 42.49 66.74 66.74 0 0 1-107.2-42.49z"></path><path class="cls-6" d="M85 323.63c1.91-11.26 29.92 1 26.08-17.66-8.5-41.45-20.11-52.82-25.54-80.75-10-51.35 51.09-59 64.58-109.16 7.68-28.56-29.94-57.6-28.9-60.86 1.27-4 65 16.49 74.21 58.31"></path><path class="cls-10" d="M279.27 54.72a120.3 120.3 0 0 1 51.11 10.45c42.76 19.14 78.73 65.49 78.73 119.4a129.85 129.85 0 0 1-129.84 129.85M279.27 54.72a120.26 120.26 0 0 0-51.11 10.45c-42.77 19.14-78.74 65.49-78.74 119.4a129.85 129.85 0 0 0 129.85 129.85"></path>
		</symbol>
	
		<symbol id="search" viewBox="0 0 20 19">
			<g fill="none" fill-rule="evenodd" stroke="#231F20"><path d="M13 7A6 6 0 1 1 1 7a6 6 0 0 1 12 0z"></path><path stroke-linecap="round" d="M12 12l7 7"></path></g>
		</symbol>
	
</svg>
